<svg xmlns="http://www.w3.org/2000/svg" width="633" height="626" viewBox="0 0 633 626">
  <defs>
    <style>
      .cls-1 {
        fill-rule: evenodd;
      }
    </style>
  </defs>
  <path id="Color_Fill_1" data-name="Color Fill 1" class="cls-1" d="M142,0H457c11.983,0,26.622-1.738,37,1,35.066,9.252,85.313,35.219,104,60,13.723,18.2,26.044,35.595,33,61,3.876,14.158,2,33.966,2,51V411c0,30.608,1.772,62.538-5,87-11.507,41.568-31.863,74.171-63,96-50.989,35.747-113.011,32-199,32H209c-25.949,0-57.242,3.54-80-2-39.939-9.722-72.4-24.319-93-53-16.231-22.6-25.348-49.425-33-81-6.128-25.288-3-58.568-3-88V240c0-45.815-5.054-103.53,9-136C24.528,68.126,58.4,28.551,94,13A216,216,0,0,1,123,3C128.925,1.371,137.216,2.989,142,0Zm-1,18c-6.905,4.306-25.6,4.865-34,9C71.372,44.534,42.018,73.136,26,110c-13.255,30.5-8,86.288-8,129V404c0,32.935-2.335,68.53,5,95,6.64,23.961,15.95,45.423,29,63,20.551,27.681,51.785,37.24,92,46H446l36-1c30.469-7.094,55.432-15.5,77-31,28.991-20.834,44.214-53.6,54-94,5.771-23.822,3-54.346,3-82V173q-0.5-20-1-40c-5.453-23.161-14.868-39.84-27-56-18.434-24.554-65.072-50.476-100-59H141ZM314,41a34.057,34.057,0,0,1,8,1,24.955,24.955,0,0,0,4,5v75c0,14.627.874,32.471-2,44-3.528,1.043-5.533,1.974-11,2-1.021-.8-0.274-0.355-2-1-4.119-8.809-4.36-24.873-3-38,0.813-7.848-1.523-67.246,1-84A24.956,24.956,0,0,0,314,41ZM157,147c2.851,0.358,5.867.625,8,2l10,11,26,25c1.781,2.719,1.915,5.616,2,10-1.514,1.411-2.209,2.764-4,4-1.9,1.521-3.59,1.789-7,2-14.978-12.9-27.685-27.544-42-41v-8A57.644,57.644,0,0,0,157,147Zm314,0c7.783,0.688,10.388,3.948,10,13-8.866,8.446-34.046,40-46,41a19.54,19.54,0,0,0-4-2c-1.9-3.236-2.9-4.357-3-10C442.25,174.333,454.986,160.045,471,147ZM229,220h52v1h1c0.7,12.709,7.321,26,11,37,5.471,16.352,7.542,31.607,13,48,4.414,13.256,9.569,27.828,13,42h1c0.537-11.689,4.972-23.048,8-33,5.413-17.789,8.232-36.116,13-53,3.22-11.4,3.94-32.756,10-41,6.241-3.933,44.505-1.11,55-1q7.5,92.991,15,186H375c0.062-11.535-1.778-25.341-3-36-2.01-17.54-.407-65.576-5-70L341,406H292v-1h-1c-0.453-9.3-4.5-18.279-7-26-4.926-15.233-7.388-30.739-12-45-3.1-9.573-2.455-22.56-8-30-3.513,33.031-6.694,67.957-7,102H213Q221,313.009,229,220ZM57,302h72c15.06,0,32.992-.72,45,2,1.5,3.314,2.051,6.478,2,12a24.935,24.935,0,0,0-5,4H55c-6.308-2.324-8.071-13.04-1-16C54.771,303.318,56.232,302.689,57,302Zm407,0h87c10.737,0,26.046-2.018,31,4,10.764,14.086-12.23,14-24,14H462c-1.021-.8-0.274-0.355-2-1-2.105-3.588-3.044-5.572-3-12A57.644,57.644,0,0,0,464,302ZM187,429l10,1c0.961,1.766,1.257,1.68,2,4,1.049,1.549,1.031,4.085,1,7-13.912,13.035-27.96,27.092-41,41a21.971,21.971,0,0,1-10-2c-1.426-3.15-2.023-5.754-2-11C160.571,456.286,174.281,442.567,187,429Zm249,0c3.09-.094,6.33-0.14,8,1,9.653,3.428,31.339,30.8,40,39,0.225,5.64-.018,8.645-3,11-2.226,1.791-4.8,2-9,2-13.035-13.912-27.092-27.96-41-41a38.784,38.784,0,0,1,1-9A18.068,18.068,0,0,0,436,429ZM313,458h8c1.285,1.834,1.968,1.712,3,4,4.34,5.04,2,22.316,2,31,0,11.078.008,36.259,0.044,37.782,0.124,5.224-.268,47.583-1.044,50.218-2.072,1.283-2.3,2.077-5,3-5.583,3.765-9.453-2.432-12-5V504c0-14.627-.874-32.471,2-44A10.925,10.925,0,0,0,313,458ZM760,338l-47,30"/>
</svg>
